<svg width="172" height="25" fill="none" xmlns="http://www.w3.org/2000/svg"><path fill-rule="evenodd" clip-rule="evenodd" d="M18.521 19.82h-3.424V0h3.424v19.82ZM13.397 4.497c0 .982-.806 1.777-1.8 1.777s-1.8-.795-1.8-1.777c0-.981.806-1.776 1.8-1.776s1.8.795 1.8 1.776Zm-6.624 7.94c1.404 0 2.34-.896 2.34-2.283 0-1.386-.963-2.337-2.422-2.337-1.322 0-2.258.924-2.258 2.392 0 1.413.881 2.228 2.34 2.228Zm-3.055 8.535c0 .924 1.045 1.577 2.808 1.577 2.395 0 3.744-.76 3.744-1.767 0-.788-.633-1.087-1.927-1.142l-3.166-.163c-.992.462-1.46.897-1.46 1.495Zm-2.644-4.376c0-1.006.743-1.984 2.148-2.691-1.322-.788-2.01-2.066-2.01-3.724 0-2.908 2.202-4.946 5.479-4.946 1.344 0 2.682.428 3.711 1.295a5.023 5.023 0 0 1 1.507 2.157c.198.565.26 1.17.26 1.766 0 2.746-2.037 4.54-5.396 4.54-.605 0-1.129-.055-1.57-.164-.632.245-.935.571-.935.952 0 .81.957.871 2.77.989.318.02.66.042 1.03.07 3.716.272 5.285.98 5.285 3.697 0 2.8-2.34 4.404-6.772 4.404-4.047 0-6.112-1.251-6.112-3.561 0-1.332.798-2.066 2.505-2.61-1.294-.624-1.9-1.196-1.9-2.174Zm25.538.607c1.85 0 2.734-1.5 2.734-4.525 0-3.027-.883-4.499-2.734-4.499-1.822 0-2.733 1.472-2.733 4.499 0 3.026.911 4.525 2.733 4.525Zm0-11.942c3.867 0 6.186 2.727 6.186 7.417 0 4.688-2.347 7.415-6.186 7.415-3.838 0-6.185-2.754-6.185-7.415 0-4.69 2.32-7.417 6.186-7.417Zm17.067 7.417c0 2.97-1.16 4.58-3.066 4.58-.938 0-1.712-.41-2.568-1.227V9.242c.884-.79 1.657-1.2 2.596-1.2 1.85 0 3.038 1.636 3.038 4.636ZM34.703 0v16.493c0 .682-.055 1.8-.165 3.326h2.65l.36-1.526c1.188 1.254 2.375 1.8 3.921 1.8 3.287 0 5.634-2.972 5.634-7.417 0-4.607-2.403-7.415-5.523-7.415-1.464 0-2.513.49-3.507 1.636V.001h-3.37Zm16.79 15.894c0 .954.552 1.527 1.546 1.527 1.078 0 2.127-.492 3.177-1.5v-3.054c-3.204.436-4.723 1.336-4.723 3.027Zm4.805 2.671c-1.325.954-2.761 1.418-4.308 1.418-2.43 0-3.866-1.445-3.866-3.817 0-3.19 2.679-4.88 8.202-5.562V9.488c0-1.036-.718-1.636-2.044-1.636-1.325 0-2.402.572-3.175 1.636l-2.32-1.445c1.215-1.854 3.065-2.781 5.551-2.781 3.396 0 5.302 1.609 5.302 4.226v8.397c0 .491.083 1.145.22 1.935h-3.258l-.304-1.254Zm9.665 1.254h-3.424V0h3.424v19.82Zm4.959-3.817c1.436 1.8 2.733 2.7 4.335 2.7 2.375 0 3.783-2.1 3.783-5.999 0-3.898-1.408-5.997-3.783-5.997-1.602 0-2.9.872-4.335 2.671v6.625ZM69.209 5.562h1.27l.442 1.853h.138c1.354-1.417 2.79-2.126 4.336-2.126 3.148 0 5.358 2.699 5.358 7.388 0 4.69-2.21 7.388-5.358 7.388-1.546 0-2.982-.681-4.335-2.1h-.139V25H69.21V5.562Zm14.36 10.632c0-2.426 2.237-3.326 7.097-4.389v4.39c-1.684 1.69-3.12 2.535-4.694 2.535-1.491 0-2.403-.954-2.403-2.536Zm2.182 3.898c1.767 0 3.34-.708 4.915-2.153.028.6.138 1.227.277 1.88h1.684c-.166-.898-.249-1.553-.249-1.908v-8.86c0-2.126-1.905-3.736-4.639-3.736-2.486 0-4.004.955-5.137 2.918l1.326.764c.856-1.527 2.016-2.291 3.59-2.291 1.988 0 3.176.954 3.176 2.345v1.39c-6.048 1.063-8.837 2.536-8.837 5.834 0 2.21 1.519 3.817 3.894 3.817Zm8.145-14.53h1.712l4.253 12.132 4.225-12.132h1.63l-5.441 15.376c-.994 2.835-2.154 4.007-4.64 4.007-.441 0-.938-.026-1.49-.109v-1.363c.441.082.856.11 1.215.11 2.07 0 3.01-1.146 3.562-3.845L93.896 5.562Zm15.106 0h-1.575V19.82h1.657V9.433c1.436-1.772 2.845-2.645 4.17-2.645 2.043 0 2.485 1.2 2.485 3.708v9.324h1.657V9.433c1.409-1.772 2.845-2.645 4.17-2.645 2.044 0 2.486 1.2 2.486 3.708v9.324h1.629V9.896c0-3.053-1.215-4.58-3.645-4.58-1.546 0-3.065.818-4.64 2.454h-.192c-.663-1.636-1.823-2.454-3.452-2.454-1.519 0-3.121.818-4.64 2.454h-.11V5.562Zm24.743 1.117c-2.265 0-3.867 1.69-4.142 4.744h7.926c-.084-3.08-1.52-4.744-3.784-4.744Zm5.468 9.706c-1.271 2.562-2.9 3.68-5.441 3.68-3.589 0-5.882-2.808-5.882-7.28 0-4.715 2.375-7.496 5.827-7.496 3.48 0 5.413 2.372 5.413 6.897v.464h-9.528c.028 3.952 1.547 6.052 4.281 6.052 1.85 0 3.038-.9 4.059-2.999l1.271.682Zm3.865-10.823h-1.712V19.82h1.712V9.433c1.547-1.772 3.064-2.645 4.501-2.645 2.209 0 2.707 1.2 2.707 3.708v9.324h1.685V9.896c0-3.053-1.299-4.58-3.894-4.58-1.603 0-3.287.818-4.999 2.481V5.562Zm15.933 13.195c.387 0 .885-.11 1.519-.273v1.363c-.634.165-1.297.273-1.934.273-1.988 0-2.844-.982-2.844-3.054V6.952h-2.153v-1.39h2.153V1.336h1.685v4.226h3.01v1.39h-3.01v10.196c0 1.09.498 1.609 1.574 1.609Zm10.578-2.645c0 1.5-1.188 2.618-2.983 2.618-1.685 0-3.121-.846-4.363-2.482l-1.271 1.009c1.436 1.909 3.175 2.808 5.441 2.808 2.981 0 4.915-1.717 4.915-4.089 0-2.263-1.463-3.135-4.336-4.199-.231-.086-.453-.168-.665-.245-1.995-.733-3.146-1.155-3.146-2.535 0-1.39 1.022-2.345 2.596-2.345 1.602 0 2.79.682 3.894 2.126l1.215-.872c-1.27-1.717-2.927-2.617-4.806-2.617-2.871 0-4.666 1.608-4.666 3.79 0 2.18 1.519 2.999 4.446 4.062l.424.155c2.112.769 3.305 1.203 3.305 2.816Z" fill="#003C71"/></svg>
