<svg width="106" height="38" fill="none" xmlns="http://www.w3.org/2000/svg"><g clip-path="url(#a)" fill="#003E6B"><path d="M.469 4.57h24.047v7.227h-7.408v21.927H7.877v-21.94H.469V4.57ZM62.883 5.297l5.458 9.25 5.377-9.25h10.238L72.69 21.395v11.708h-8.817V21.395L52.688 5.297h10.195ZM104.826 0a.644.644 0 0 0-.643.642v5.985c-.271-.153-.559-.31-.876-.463a19.057 19.057 0 0 0-8.42-1.773c-5.017 0-9.73 1.616-11.54 5.71a8.635 8.635 0 0 0-.791 3.579c0 5.866 5.021 7.44 7.59 8.11 1.146.273 6.286 1.178 7.272 1.531 1.54.515 1.54 1.54 1.54 1.735 0 2.006-3.474 2.083-4.189 2.083-1.329 0-2.65-.213-3.913-.63-2.411-.786-3.08-1.81-3.87-3.026l-6.77 4.327c1.27 1.535 3.317 4.013 7.75 5.271 2.11.587 4.29.874 6.478.85 1.409 0 6.223 0 9.73-2.745v6.168a.644.644 0 0 0 1.269 0V.642a.647.647 0 0 0-.617-.642Zm-9.583 15.015c-2.411-.426-3.833-.783-3.833-2.126 0-1.411 1.659-1.807 3.165-1.807a12.797 12.797 0 0 1 5.178 1.025 5.661 5.661 0 0 1 2.115 1.81l2.298-1.912v5.603c-2.34-1.446-5.627-2.024-8.923-2.593ZM41.362 15.015c-2.416-.425-3.837-.782-3.837-2.126 0-1.411 1.662-1.806 3.16-1.806 1.78-.023 3.544.326 5.183 1.024a5.698 5.698 0 0 1 2.115 1.811l5.55-4.62a13.401 13.401 0 0 0-4.112-3.147 19.103 19.103 0 0 0-8.423-1.772c-4.108 0-8.004 1.08-10.28 3.715V.642A.647.647 0 0 0 30.083.1a.641.641 0 0 0-.634.542v36.712a.646.646 0 0 0 .634.542.64.64 0 0 0 .635-.542v-5.662c1.068.599 2.204 1.066 3.384 1.39 2.11.586 4.292.873 6.482.85 1.544 0 7.158 0 10.673-3.584a8.777 8.777 0 0 0 2.496-6.258c-.016-6.907-6.189-7.991-12.391-9.075Zm-.478 12.136c-1.33 0-2.65-.212-3.913-.629-2.412-.786-3.085-1.81-3.871-3.026l-2.378 1.517v-6.015c1.692 1.7 4.032 2.398 5.538 2.793 1.146.272 6.282 1.177 7.272 1.53 1.544.515 1.545 1.54 1.545 1.735-.005 2.006-3.482 2.095-4.193 2.095Z"/></g><defs><clipPath id="a"><path fill="#fff" transform="translate(.469)" d="M0 0h105v38H0z"/></clipPath></defs></svg>
